<?xml version="1.0" standalone="no"?>
<!DOCTYPE svg PUBLIC "-//W3C//DTD SVG 20010904//EN"
 "http://www.w3.org/TR/2001/REC-SVG-20010904/DTD/svg10.dtd">
<svg version="1.0" xmlns="http://www.w3.org/2000/svg"
 width="512.000000pt" height="512.000000pt" viewBox="0 0 512.000000 512.000000"
 preserveAspectRatio="xMidYMid meet">

<g transform="translate(0.000000,512.000000) scale(0.100000,-0.100000)"
fill="#000000" stroke="none">
<path d="M2287 4855 c-656 -80 -1252 -440 -1629 -986 -264 -382 -408 -843
-408 -1303 0 -1279 1035 -2316 2312 -2316 844 0 1613 458 2027 1207 170 309
265 656 278 1023 47 1311 -1010 2398 -2322 2389 -82 -1 -199 -7 -258 -14z
m582 -160 c356 -53 680 -187 981 -409 113 -83 297 -260 387 -371 342 -426 513
-969 473 -1502 -69 -939 -725 -1720 -1635 -1947 -319 -80 -703 -82 -1010 -5
-394 99 -714 274 -994 544 -353 340 -570 760 -647 1251 -23 148 -23 459 0 609
71 460 272 867 590 1194 379 388 855 611 1401 655 91 7 345 -4 454 -19z"/>
<path d="M2378 4399 c-449 -43 -894 -270 -1195 -609 -500 -563 -612 -1365
-283 -2036 182 -372 465 -658 835 -844 597 -299 1296 -256 1850 115 273 182
483 422 630 720 254 511 257 1099 9 1615 -335 698 -1074 1113 -1846 1039z
m537 -182 c609 -138 1085 -576 1263 -1162 60 -196 67 -249 66 -500 0 -257 -11
-329 -79 -533 -174 -518 -588 -921 -1112 -1081 -193 -59 -248 -66 -493 -66
-197 0 -238 3 -330 23 -683 149 -1186 650 -1331 1328 -21 96 -24 136 -24 334
0 198 3 238 23 334 146 682 673 1202 1347 1330 127 24 130 24 350 21 180 -3
226 -7 320 -28z"/>
<path d="M2523 4148 c-36 -18 -45 -57 -41 -188 3 -114 5 -123 27 -141 13 -10
36 -19 51 -19 15 0 38 9 51 19 22 18 24 27 27 141 4 134 -5 171 -44 189 -30
13 -42 13 -71 -1z"/>
<path d="M1720 3323 c-14 -18 -20 -36 -16 -53 2 -14 93 -189 200 -390 155
-290 198 -379 211 -435 40 -183 184 -315 375 -347 67 -11 109 -31 407 -190
183 -98 343 -178 357 -178 13 0 34 8 47 19 44 36 34 64 -143 396 -166 309
-166 310 -161 363 17 161 -92 358 -238 433 -57 29 -145 49 -216 49 -61 0 -66
2 -399 180 -366 195 -385 202 -424 153z m443 -337 c70 -37 127 -69 127 -72 0
-2 -18 -20 -40 -40 -21 -19 -52 -55 -68 -80 -22 -32 -32 -41 -39 -31 -9 11
-162 298 -172 321 -2 5 11 0 30 -11 19 -11 91 -51 162 -87z m507 -177 c186
-82 231 -329 86 -474 -116 -116 -296 -116 -412 0 -66 66 -88 128 -82 229 5 79
22 118 75 177 84 93 215 120 333 68z m317 -671 c39 -73 70 -134 68 -136 -4 -5
-275 142 -275 149 0 4 18 18 40 33 21 14 49 39 61 56 13 16 25 30 29 30 3 0
38 -60 77 -132z"/>
<path d="M984 2608 c-22 -10 -44 -47 -44 -73 0 -8 11 -27 24 -42 l24 -28 137
0 c132 0 137 1 156 24 28 35 25 85 -7 110 -24 19 -40 21 -148 20 -66 0 -131
-5 -142 -11z"/>
<path d="M3846 2599 c-32 -25 -35 -75 -7 -110 18 -23 24 -24 154 -24 144 0
160 5 178 54 13 33 -5 75 -37 90 -14 6 -77 11 -143 11 -105 0 -121 -2 -145
-21z"/>
<path d="M2533 1280 c-46 -19 -55 -49 -51 -183 4 -145 14 -167 78 -167 66 0
75 21 75 176 0 120 -2 135 -20 153 -26 24 -54 32 -82 21z"/>
</g>
</svg>
