<?xml version="1.0" standalone="no"?>
<!DOCTYPE svg PUBLIC "-//W3C//DTD SVG 20010904//EN"
 "http://www.w3.org/TR/2001/REC-SVG-20010904/DTD/svg10.dtd">
<svg version="1.0" xmlns="http://www.w3.org/2000/svg"
 width="512.000000pt" height="512.000000pt" viewBox="0 0 512.000000 512.000000"
 preserveAspectRatio="xMidYMid meet">

<g transform="translate(0.000000,512.000000) scale(0.100000,-0.100000)"
fill="#000000" stroke="none">
<path d="M1243 4546 c-122 -30 -247 -125 -305 -231 -15 -28 -160 -477 -322
-999 l-296 -949 0 -692 c0 -750 0 -746 56 -857 36 -71 123 -159 193 -197 123
-65 -8 -61 1991 -61 1999 0 1868 -4 1991 61 70 38 157 126 193 197 56 111 56
107 56 857 l0 692 -296 949 c-162 522 -307 971 -322 999 -59 109 -194 208
-320 234 -81 17 -2549 14 -2619 -3z m2590 -320 c69 -29 65 -18 333 -898 140
-458 254 -836 254 -840 0 -4 -252 -9 -559 -10 -547 -3 -560 -3 -587 -24 -67
-50 -69 -55 -74 -294 -5 -239 -7 -244 -74 -294 -27 -21 -38 -21 -566 -21 -528
0 -539 0 -566 21 -67 50 -69 55 -74 294 -5 239 -7 244 -74 294 -27 21 -40 21
-587 24 -307 1 -559 5 -559 9 0 15 504 1641 515 1663 17 32 53 66 85 79 16 6
465 10 1263 10 1027 1 1243 -1 1270 -13z m-2233 -2174 c0 -173 38 -279 137
-383 61 -64 141 -111 228 -134 88 -22 1102 -22 1190 0 87 23 167 70 228 134
99 104 137 210 137 383 l0 108 480 0 480 0 -2 -589 c-3 -578 -3 -590 -24 -617
-11 -15 -33 -37 -48 -48 l-27 -21 -1819 0 -1819 0 -27 21 c-15 11 -37 33 -48
48 -21 27 -21 39 -24 617 l-2 589 480 0 480 0 0 -108z"/>
</g>
</svg>
