<?xml version="1.0" standalone="no"?>
<!DOCTYPE svg PUBLIC "-//W3C//DTD SVG 20010904//EN"
 "http://www.w3.org/TR/2001/REC-SVG-20010904/DTD/svg10.dtd">
<svg version="1.0" xmlns="http://www.w3.org/2000/svg"
 width="509.000000pt" height="444.000000pt" viewBox="0 0 509.000000 444.000000"
 preserveAspectRatio="xMidYMid meet">

<g transform="translate(0.000000,444.000000) scale(0.100000,-0.100000)"
fill="#000000" stroke="none">
<path d="M2305 4415 c-452 -80 -831 -355 -1039 -755 -93 -179 -143 -355 -161
-567 l-7 -83 -168 0 c-122 0 -170 -3 -177 -12 -5 -7 -60 -650 -122 -1428 -62
-778 -115 -1441 -118 -1472 l-6 -58 -248 0 c-201 0 -249 -3 -249 -13 0 -21
535 -27 2535 -27 2000 0 2535 6 2535 27 0 10 -48 13 -250 13 l-249 0 -5 33
c-3 17 -55 662 -116 1432 -60 770 -113 1423 -117 1450 l-8 50 -175 5 -175 5
-7 100 c-32 477 -334 931 -766 1153 -228 118 -368 152 -637 157 -134 3 -213 0
-270 -10z m520 -43 c393 -85 718 -317 927 -661 50 -82 138 -280 138 -311 0
-13 -19 -14 -163 -4 -748 54 -1616 54 -2365 0 -90 -6 -165 -10 -167 -8 -7 7
47 145 87 227 153 307 430 562 741 684 117 45 194 66 316 86 118 20 366 13
486 -13z m445 -983 c297 -13 622 -37 632 -47 13 -13 38 -151 45 -244 l6 -88
-224 -2 -224 -3 -3 -232 -2 -233 -960 0 -960 0 0 235 0 235 -218 0 c-120 0
-221 2 -223 5 -8 8 10 188 26 261 l16 72 57 6 c129 13 583 38 841 46 310 9
852 4 1191 -11z m-1869 -419 l139 0 2 -232 3 -233 998 -3 997 -2 0 233 0 234
376 7 c218 4 380 4 386 -2 7 -7 238 -2820 238 -2904 l0 -28 -765 0 -765 0 0
33 c0 17 -5 109 -10 202 -15 268 -51 475 -120 685 -73 223 -230 539 -282 566
-35 18 -88 18 -115 -1 -29 -20 -140 -223 -203 -369 -123 -287 -183 -574 -197
-953 l-6 -163 -763 0 c-420 0 -765 3 -767 8 -3 5 226 2895 232 2931 1 2 110 1
243 -2 133 -4 303 -7 379 -7z m1193 -1493 c17 -19 61 -92 98 -163 178 -346
262 -679 275 -1087 l6 -187 -429 2 -429 3 3 135 c8 454 109 840 316 1208 73
131 104 148 160 89z"/>
<path d="M2210 2990 l0 -160 75 0 75 0 0 160 0 160 -75 0 -75 0 0 -160z m118
-2 l3 -118 -46 0 -45 0 0 121 0 120 43 -3 42 -3 3 -117z"/>
<path d="M2450 2990 l0 -160 75 0 75 0 0 160 0 160 -75 0 -75 0 0 -160z m118
-2 l3 -118 -46 0 -45 0 0 121 0 120 43 -3 42 -3 3 -117z"/>
<path d="M2690 2990 l0 -160 75 0 75 0 0 160 0 160 -75 0 -75 0 0 -160z m118
-2 l3 -118 -46 0 -45 0 0 121 0 120 43 -3 42 -3 3 -117z"/>
</g>
</svg>
