<?xml version="1.0" standalone="no"?>
<!DOCTYPE svg PUBLIC "-//W3C//DTD SVG 20010904//EN"
 "http://www.w3.org/TR/2001/REC-SVG-20010904/DTD/svg10.dtd">
<svg version="1.0" xmlns="http://www.w3.org/2000/svg"
 width="812.000000pt" height="353.000000pt" viewBox="0 0 812.000000 353.000000"
 preserveAspectRatio="xMidYMid meet">

<g transform="translate(0.000000,353.000000) scale(0.100000,-0.100000)"
fill="#000000" stroke="none">
<path d="M820 3498 c1 -52 -152 -3204 -155 -3216 -3 -8 -28 -12 -80 -12 l-75
0 0 -115 0 -115 -250 0 c-203 0 -250 -3 -250 -13 0 -22 569 -25 4230 -22 4155
3 3870 1 3870 20 0 13 -34 15 -250 15 l-250 0 0 115 0 115 -75 0 c-52 0 -77 4
-80 13 -3 11 -156 3163 -155 3215 0 22 -2 22 -130 22 l-130 0 0 -115 0 -115
-95 0 -94 0 -3 113 -3 112 -192 3 -193 2 0 -115 0 -115 -95 0 -94 0 -3 113 -3
112 -127 3 -126 3 -6 -73 c-8 -106 -15 -236 -16 -290 l0 -47 -137 -3 -138 -3
-3 -87 -3 -88 -134 0 -135 0 0 90 0 90 -165 0 -165 0 0 -90 0 -90 -135 0 -134
0 -3 88 -3 87 -167 3 -168 2 0 -90 0 -90 -135 0 -135 0 0 90 0 90 -170 0 -170
0 0 -90 0 -90 -130 0 -129 0 -3 88 -3 87 -167 3 -168 2 0 -90 0 -90 -135 0
-135 0 0 90 0 90 -167 -2 -168 -3 -3 -87 -3 -88 -134 0 -135 0 0 90 0 90 -140
0 -140 0 0 48 c-1 54 -8 184 -16 290 l-6 73 -126 -3 -127 -3 -3 -112 -3 -113
-94 0 -95 0 0 115 0 115 -192 -2 -193 -3 -3 -112 -3 -113 -94 0 -95 0 0 115 0
115 -130 0 c-128 0 -130 0 -130 -22z m230 -108 l0 -100 -100 0 -100 0 0 93 c0
52 3 97 7 100 3 4 48 7 100 7 l93 0 0 -100z m580 0 l0 -100 -160 0 -160 0 0
100 0 100 160 0 160 0 0 -100z m450 77 c0 -13 3 -58 6 -100 l7 -77 -102 0
-101 0 0 100 0 100 95 0 c93 0 95 0 95 -23z m4150 -77 l0 -100 -100 0 c-115 0
-105 -13 -94 123 l7 77 93 0 94 0 0 -100z m580 0 l0 -100 -160 0 -160 0 0 100
0 100 160 0 160 0 0 -100z m458 -2 l3 -98 -101 0 -100 0 0 100 0 101 98 -3 97
-3 3 -97z m-5174 -210 c3 -40 8 -140 11 -223 5 -160 47 -1016 66 -1355 6 -113
23 -456 38 -763 l26 -557 -272 0 -273 0 0 325 0 325 -222 -2 -223 -3 -3 -323
-2 -322 -270 0 c-209 0 -270 3 -270 13 0 6 32 660 70 1452 38 792 70 1455 70
1473 l0 32 624 0 624 0 6 -72z m5186 40 c0 -18 32 -681 70 -1473 38 -792 70
-1446 70 -1452 0 -10 -61 -13 -270 -13 l-270 0 -2 323 -3 322 -222 3 -223 2 0
-325 0 -325 -273 0 -272 0 26 557 c15 307 32 650 38 763 19 339 61 1195 66
1355 3 83 8 183 11 223 l6 72 624 0 624 0 0 -32z m-4902 -215 l3 -73 -121 0
-120 0 0 75 0 76 118 -3 117 -3 3 -72z m607 2 l0 -70 -132 -3 -133 -3 0 76 0
76 133 -3 132 -3 0 -70z m605 0 l0 -76 -132 3 -133 3 -3 59 c-2 32 -1 65 2 72
4 11 35 14 136 14 l130 0 0 -75z m600 0 l0 -75 -130 0 -130 0 0 75 0 75 130 0
130 0 0 -75z m610 0 l0 -75 -135 0 -135 0 0 68 c0 38 3 72 7 75 3 4 64 7 135
7 l128 0 0 -75z m608 -2 l3 -73 -136 0 -135 0 0 68 c0 38 3 72 7 76 4 3 63 5
132 4 l126 -3 3 -72z m572 2 l0 -75 -115 0 -115 0 0 75 0 75 115 0 115 0 0
-75z m-135 -114 l130 -1 -27 -566 c-15 -312 -29 -568 -30 -569 -2 -2 -79 12
-173 31 -572 113 -1053 159 -1685 159 -632 0 -1113 -46 -1685 -159 -93 -19
-171 -33 -171 -32 -1 0 -3 32 -5 70 l-4 70 65 13 c68 14 90 27 74 43 -6 6 -32
3 -72 -7 -34 -9 -65 -14 -67 -11 -2 2 -14 218 -27 481 l-23 476 135 3 c126 3
3278 2 3565 -1z m-1060 -1005 c352 -33 662 -77 965 -137 85 -17 158 -34 162
-37 4 -4 -9 -320 -27 -702 -19 -382 -35 -703 -35 -712 0 -15 -10 -18 -64 -18
-100 0 -96 5 -96 -126 l0 -114 -1630 0 -1630 0 0 114 c0 131 4 126 -96 126
-54 0 -64 3 -64 18 0 9 -16 330 -35 712 -18 382 -31 698 -27 702 10 9 337 72
532 102 214 33 476 62 670 76 85 6 173 12 195 14 22 2 258 2 525 1 343 -2 535
-8 655 -19z m-3127 -1298 l2 -308 -195 0 -195 0 0 303 c0 167 3 307 7 311 4 3
90 5 192 4 l186 -3 3 -307z m5190 0 l2 -308 -195 0 -195 0 0 303 c0 167 3 307
7 311 4 3 90 5 192 4 l186 -3 3 -307z m-4458 -448 l0 -100 -922 2 -923 3 -3
98 -3 97 926 0 925 0 0 -100z m5188 3 l-3 -98 -922 -3 -923 -2 0 100 0 100
925 0 926 0 -3 -97z"/>
<path d="M2540 2642 c-73 -37 -101 -128 -61 -202 52 -98 205 -98 256 0 20 38
19 115 -2 150 -21 36 -81 70 -124 70 -19 0 -50 -8 -69 -18z m104 -26 c121 -50
87 -216 -44 -216 -38 0 -96 51 -105 90 -9 43 21 101 65 122 42 22 42 22 84 4z"/>
<path d="M3837 2654 c-13 -13 -8 -269 5 -282 19 -19 422 -17 437 2 8 9 11 57
9 147 l-3 134 -221 3 c-121 1 -223 -1 -227 -4z m413 -139 l0 -115 -190 0 -190
0 0 115 0 115 190 0 190 0 0 -115z"/>
<path d="M5439 2639 c-48 -28 -69 -66 -69 -126 0 -88 54 -145 138 -146 60 -1
108 25 133 73 71 132 -73 273 -202 199z m139 -35 c31 -20 55 -78 47 -115 -9
-38 -68 -89 -105 -89 -46 0 -78 17 -100 52 -26 43 -25 88 2 123 41 53 102 64
156 29z"/>
<path d="M3755 2120 c-14 -23 13 -31 91 -28 62 2 79 6 79 18 0 12 -17 16 -82
18 -52 2 -84 -1 -88 -8z"/>
<path d="M4155 2120 c-14 -23 13 -31 91 -28 62 2 79 6 79 18 0 12 -17 16 -82
18 -52 2 -84 -1 -88 -8z"/>
<path d="M4553 2107 c-10 -17 13 -25 89 -31 52 -5 79 -3 83 5 4 6 3 14 -1 19
-12 11 -164 17 -171 7z"/>
<path d="M3385 2101 c-17 -3 -30 -13 -30 -21 0 -12 11 -14 50 -12 73 5 118 16
123 30 4 13 -87 15 -143 3z"/>
<path d="M3035 2068 c-71 -9 -97 -21 -79 -37 15 -13 169 12 169 29 0 18 -8 19
-90 8z"/>
<path d="M4945 2070 c-8 -14 7 -19 90 -29 67 -8 108 1 88 19 -14 13 -171 21
-178 10z"/>
<path d="M2636 2014 c-76 -15 -94 -25 -74 -42 10 -8 33 -7 83 4 97 20 100 21
85 39 -7 8 -15 14 -19 14 -3 -1 -37 -8 -75 -15z"/>
<path d="M5346 2022 c-4 -6 -2 -13 3 -16 15 -10 155 -34 164 -29 14 8 7 24
-15 32 -40 15 -145 24 -152 13z"/>
<path d="M5739 1953 c-14 -16 -10 -17 90 -38 49 -10 78 -12 84 -6 12 12 7 15
-91 39 -59 15 -74 16 -83 5z"/>
</g>
</svg>
