<?xml version="1.0" standalone="no"?>
<!DOCTYPE svg PUBLIC "-//W3C//DTD SVG 20010904//EN"
 "http://www.w3.org/TR/2001/REC-SVG-20010904/DTD/svg10.dtd">
<svg version="1.0" xmlns="http://www.w3.org/2000/svg"
 width="388.000000pt" height="604.000000pt" viewBox="0 0 388.000000 604.000000"
 preserveAspectRatio="xMidYMid meet">

<g transform="translate(0.000000,604.000000) scale(0.100000,-0.100000)"
fill="#000000" stroke="none">
<path d="M1927 6034 c-4 -4 -7 -41 -7 -83 l0 -76 -38 -20 c-48 -26 -72 -74
-72 -146 0 -48 -3 -57 -20 -62 -19 -5 -20 -14 -20 -336 l0 -331 -65 0 c-63 0
-65 -1 -65 -26 0 -55 24 -166 37 -171 10 -4 13 -66 13 -319 l0 -314 -69 0
c-39 0 -73 -5 -76 -10 -6 -10 9 -128 21 -172 4 -12 15 -18 34 -18 21 0 29 -5
32 -22 6 -37 -10 -834 -21 -1063 -41 -779 -115 -1357 -217 -1695 -23 -74 -78
-218 -89 -228 -2 -2 -21 10 -44 26 -56 41 -117 56 -204 50 -79 -5 -133 -27
-186 -77 -36 -33 -34 -51 6 -51 122 0 213 -116 213 -269 -1 -187 -126 -407
-288 -505 -116 -70 -157 -76 -493 -76 -292 0 -299 0 -299 -20 0 -20 7 -20
1930 -20 1923 0 1930 0 1930 20 0 20 -7 20 -299 20 -336 0 -377 6 -493 76
-162 98 -287 318 -288 505 0 153 91 269 213 269 40 0 42 18 6 51 -53 50 -107
72 -186 77 -87 6 -148 -9 -204 -50 -23 -16 -42 -28 -44 -26 -12 12 -62 142
-90 234 -102 335 -176 919 -216 1689 -12 238 -27 1026 -21 1063 3 17 11 22 32
22 19 0 30 6 34 18 12 44 27 162 21 172 -3 5 -37 10 -76 10 l-69 0 0 314 c0
253 3 315 13 319 13 5 37 116 37 171 0 25 -2 26 -65 26 l-65 0 0 331 c0 322
-1 331 -20 336 -17 5 -20 14 -20 62 0 72 -24 120 -72 146 l-37 20 -3 79 c-3
73 -13 98 -31 80z m78 -229 c22 -21 25 -33 25 -90 l0 -65 -90 0 -90 0 0 65 c0
83 25 115 90 115 30 0 47 -6 65 -25z m-85 -510 l0 -316 -57 3 -58 3 -3 313 -2
312 60 0 60 0 0 -315z m158 3 l-3 -313 -57 -3 -58 -3 0 316 0 315 60 0 60 0
-2 -312z m128 -366 c-3 -9 -8 -38 -12 -64 l-6 -48 -248 0 -248 0 -6 48 c-4 26
-9 55 -12 64 -5 16 14 17 266 17 252 0 271 -1 266 -17z m-356 -467 l0 -315
-65 0 -65 0 0 308 c0 170 3 312 7 315 3 4 33 7 65 7 l58 0 0 -315z m148 -2 l2
-313 -60 0 -60 0 0 308 c0 170 3 312 7 316 4 4 30 6 58 4 l50 -3 3 -312z m160
0 l2 -313 -65 0 -65 0 0 315 0 316 63 -3 62 -3 3 -312z m137 -410 c-4 -32 -9
-61 -12 -65 -2 -5 -157 -8 -343 -8 -186 0 -341 3 -343 8 -3 4 -8 33 -12 65
l-7 57 362 0 362 0 -7 -57z m-447 -283 c2 -96 0 -280 -3 -407 l-7 -233 -95 0
-95 0 6 28 c3 15 8 199 12 410 l6 383 87 -3 86 -3 3 -175z m152 -230 l0 -410
-60 0 -60 0 0 410 0 410 60 0 60 0 0 -410z m214 28 c4 -211 9 -395 12 -410 l6
-28 -95 0 -94 0 -6 173 c-9 224 -9 632 0 640 3 4 43 7 88 7 l83 0 6 -382z
m-379 -700 c-10 -334 -21 -544 -29 -557 -5 -7 -43 -11 -103 -11 l-96 0 7 83
c11 145 36 580 36 645 l0 62 96 0 96 0 -7 -222z m178 -15 c4 -131 10 -307 14
-390 l6 -153 -93 0 -93 0 6 153 c4 83 10 259 14 390 l6 237 67 0 67 0 6 -237z
m217 175 c0 -65 25 -500 36 -645 l7 -83 -96 0 c-60 0 -98 4 -103 11 -8 13 -19
223 -29 557 l-7 222 96 0 96 0 0 -62z m-425 -850 c-17 -249 -37 -484 -48 -583
l-12 -110 -118 -10 c-65 -6 -120 -8 -121 -5 -2 3 5 52 15 110 20 117 65 471
75 597 l6 82 32 4 c17 2 64 5 105 5 l73 2 -7 -92z m248 -163 c10 -141 25 -314
33 -387 8 -72 12 -133 10 -136 -6 -6 -306 -6 -312 0 -2 3 2 64 11 137 8 73 22
246 32 386 l17 255 96 0 95 0 18 -255z m179 249 l46 -6 6 -82 c10 -125 55
-479 75 -596 10 -58 17 -107 15 -110 -1 -3 -56 -1 -121 5 l-118 10 -12 110
c-11 99 -31 334 -48 583 l-7 92 60 0 c32 0 80 -3 104 -6z m-492 -823 c0 -34
-55 -321 -76 -402 l-26 -97 -47 25 c-41 22 -55 24 -133 21 -49 -2 -88 -3 -88
-1 0 2 15 48 34 101 18 53 46 149 61 212 14 63 30 119 34 123 5 4 46 12 92 16
121 12 149 12 149 2z m370 -12 c0 -38 40 -264 65 -366 13 -54 22 -99 21 -101
-2 -1 -30 10 -62 25 -55 26 -67 28 -194 28 -127 0 -139 -2 -194 -28 -32 -15
-60 -26 -62 -25 -1 2 8 47 21 101 25 102 65 328 65 366 0 21 3 21 170 21 167
0 170 0 170 -21z m235 2 l39 -6 37 -145 c20 -80 49 -177 63 -216 14 -39 26
-73 26 -76 0 -2 -39 -2 -87 0 -79 3 -93 1 -134 -21 l-47 -25 -26 97 c-22 81
-76 368 -76 402 0 9 122 3 205 -10z m-1173 -457 c141 -48 214 -199 206 -424
-4 -92 -11 -132 -34 -200 -33 -99 -108 -215 -175 -272 l-46 -38 -189 2 -189 3
47 24 c142 72 269 238 312 407 18 69 21 211 6 264 -5 20 -23 57 -40 83 -24 38
-43 54 -90 75 -33 15 -58 32 -56 37 5 18 110 54 157 55 25 0 66 -7 91 -16z
m889 0 c66 -20 149 -61 149 -74 0 -5 -12 -49 -26 -97 -32 -109 -43 -302 -24
-421 13 -82 57 -218 96 -294 l24 -48 -340 0 -340 0 24 48 c39 76 83 212 96
294 19 119 8 312 -24 421 -14 48 -26 92 -26 97 0 13 71 49 140 71 69 23 180
24 251 3z m838 -7 c30 -12 56 -26 57 -32 2 -5 -23 -22 -56 -37 -47 -21 -66
-37 -90 -75 -17 -26 -35 -63 -40 -83 -15 -53 -12 -195 6 -264 43 -169 170
-335 312 -407 l47 -24 -189 -3 -189 -2 -46 38 c-67 57 -142 173 -175 272 -23
68 -30 108 -34 200 -6 175 33 300 119 373 79 68 181 84 278 44z m-1323 -33
c46 -24 65 -57 96 -170 18 -65 22 -105 22 -229 -1 -135 -3 -159 -28 -240 -15
-49 -45 -127 -66 -172 l-39 -83 -187 0 -187 0 42 45 c144 157 214 392 179 602
-9 54 -29 120 -46 157 -33 71 -33 73 29 101 45 20 133 15 185 -11z m911 11
c64 -27 65 -29 31 -101 -108 -232 -51 -559 133 -759 l42 -45 -187 0 -186 0
-29 58 c-98 195 -132 409 -96 598 23 123 53 201 83 222 61 43 145 53 209 27z"/>
</g>
</svg>
