<?xml version="1.0" standalone="no"?>
<!DOCTYPE svg PUBLIC "-//W3C//DTD SVG 20010904//EN"
 "http://www.w3.org/TR/2001/REC-SVG-20010904/DTD/svg10.dtd">
<svg version="1.0" xmlns="http://www.w3.org/2000/svg"
 width="512.000000pt" height="512.000000pt" viewBox="0 0 512.000000 512.000000"
 preserveAspectRatio="xMidYMid meet">

<g transform="translate(0.000000,512.000000) scale(0.100000,-0.100000)"
fill="#000000" stroke="none">
<path d="M2318 4526 c-106 -38 -192 -118 -230 -215 -20 -50 -22 -78 -26 -258
l-4 -202 -561 -3 c-561 -3 -562 -3 -619 -26 -124 -50 -217 -142 -261 -258 -22
-58 -22 -65 -25 -661 l-3 -603 -92 0 c-199 -1 -299 -33 -388 -127 -79 -83
-102 -145 -107 -284 -3 -89 0 -129 13 -175 32 -113 105 -198 215 -251 51 -25
67 -27 207 -31 l152 -4 3 -257 c3 -239 5 -260 27 -313 48 -123 151 -222 268
-258 63 -19 91 -20 805 -20 l740 0 29 29 c40 40 40 89 0 133 l-29 33 -744 5
c-833 6 -772 0 -842 81 -23 27 -39 59 -46 93 -8 34 -10 227 -8 596 l3 545 493
3 c270 1 492 0 492 -2 0 -2 -22 -96 -50 -210 -27 -114 -50 -219 -50 -235 0
-33 37 -77 72 -86 14 -4 107 -5 207 -3 l183 3 26 31 c15 17 62 86 105 153 l78
121 102 -6 c56 -4 134 -9 173 -13 l70 -6 -67 -190 c-138 -387 -141 -394 -129
-431 20 -60 35 -64 274 -64 189 0 216 2 234 17 11 10 115 158 232 328 l211
310 247 6 c272 7 314 14 453 84 87 44 240 148 261 179 55 76 44 172 -26 240
-62 59 -239 162 -343 199 l-88 32 -250 3 -250 4 -219 320 c-179 263 -225 323
-252 334 -24 10 -82 14 -214 14 -211 0 -242 -8 -266 -67 l-16 -37 101 -286
c56 -157 101 -290 101 -297 0 -7 -51 -13 -152 -18 -84 -3 -160 -8 -168 -11
-10 -2 -42 40 -102 139 -48 78 -97 148 -108 155 -14 8 -77 12 -221 12 l-201 0
-29 -29 c-20 -20 -29 -40 -29 -61 0 -24 71 -327 96 -412 5 -17 -23 -18 -491
-18 l-496 0 3 593 c3 660 -1 618 75 692 72 69 -64 65 1988 65 2009 0 1905 3
1979 -54 19 -14 46 -49 60 -78 l26 -52 0 -1245 c0 -848 -4 -1258 -11 -1284 -6
-21 -27 -56 -46 -78 -72 -79 -8 -73 -865 -79 l-766 -5 -26 -24 c-47 -44 -44
-112 8 -153 19 -16 76 -18 782 -18 732 0 764 1 826 20 119 37 222 132 272 253
l21 52 3 1275 c2 887 -1 1291 -8 1327 -35 168 -173 300 -344 332 -38 7 -248
11 -587 11 l-527 0 -4 208 c-3 203 -4 208 -32 269 -33 73 -112 152 -183 186
-47 22 -53 22 -563 24 -407 2 -523 0 -552 -11z m1036 -200 c18 -8 46 -31 62
-52 l29 -37 3 -194 3 -193 -595 0 -596 0 0 178 c0 151 3 183 19 218 17 38 54
73 91 87 8 3 226 6 483 6 379 1 474 -2 501 -13z m-452 -1313 c8 -10 104 -148
213 -308 108 -159 208 -301 221 -315 l24 -25 288 -5 287 -5 80 -36 c75 -33
215 -117 215 -129 0 -7 -122 -81 -189 -115 -92 -46 -162 -55 -432 -55 -229 0
-247 -1 -266 -19 -12 -11 -117 -160 -233 -330 l-213 -311 -78 0 c-44 0 -79 2
-79 5 0 3 44 127 97 277 56 159 96 287 96 308 -2 58 -43 86 -139 93 -271 21
-515 30 -539 19 -15 -7 -62 -68 -120 -157 l-94 -145 -66 0 c-36 0 -65 3 -65 8
0 4 23 102 51 218 l52 212 -51 206 c-29 113 -52 208 -52 211 0 3 33 5 73 5
l72 0 85 -141 c57 -95 94 -146 113 -156 25 -12 62 -12 310 2 196 11 292 20
315 31 38 16 64 67 55 105 -3 13 -48 143 -100 287 -51 145 -93 268 -93 273 0
5 33 9 73 9 58 0 77 -4 89 -17z m-2312 -1148 l0 -235 -122 0 c-145 0 -192 17
-236 83 -23 35 -27 53 -31 130 -2 66 1 100 14 132 18 47 71 102 108 109 12 3
31 7 42 9 11 3 66 5 123 6 l102 1 0 -235z"/>
<path d="M2784 764 c-60 -29 -73 -107 -25 -155 54 -53 140 -32 162 40 14 47 0
85 -43 111 -39 24 -53 24 -94 4z"/>
</g>
</svg>
