<?xml version="1.0" standalone="no"?>
<!DOCTYPE svg PUBLIC "-//W3C//DTD SVG 20010904//EN"
 "http://www.w3.org/TR/2001/REC-SVG-20010904/DTD/svg10.dtd">
<svg version="1.0" xmlns="http://www.w3.org/2000/svg"
 width="788.000000pt" height="394.000000pt" viewBox="0 0 788.000000 394.000000"
 preserveAspectRatio="xMidYMid meet">

<g transform="translate(0.000000,394.000000) scale(0.100000,-0.100000)"
fill="#000000" stroke="none">
<path d="M3930 3812 c0 -94 -3 -122 -17 -142 -9 -14 -82 -108 -162 -210 -79
-102 -146 -187 -147 -188 -1 -2 -395 -129 -876 -283 -794 -254 -908 -288
-1258 -373 -212 -52 -394 -96 -405 -98 -20 -3 -20 -13 -25 -928 l-5 -925 -97
-3 -98 -3 0 -104 0 -105 -165 0 -165 0 0 -205 0 -205 -247 -2 c-213 -3 -248
-5 -248 -18 0 -13 444 -15 3928 -18 3922 -2 3927 -2 3927 18 0 19 -7 20 -250
20 l-250 0 0 205 0 205 -160 0 -160 0 0 105 0 105 -100 0 -100 0 0 925 c0 732
-3 926 -12 929 -7 2 -177 43 -378 91 -336 80 -437 109 -1260 372 -492 157
-900 288 -907 291 -6 4 -84 99 -172 211 l-161 204 0 124 c0 103 -2 123 -15
123 -12 0 -15 -20 -15 -118z m434 -702 c229 -291 416 -534 416 -540 0 -6 -281
-10 -841 -9 -476 0 -839 3 -837 8 5 16 833 1070 840 1070 3 1 193 -237 422
-529z m-821 88 c-131 -171 -489 -625 -497 -631 -6 -4 -164 -7 -351 -7 -289 0
-365 -3 -510 -21 -139 -18 -239 -22 -547 -26 -228 -2 -378 0 -378 5 0 5 116
37 258 71 276 66 429 113 1387 420 341 110 626 200 634 200 9 1 10 -3 4 -11z
m1655 -259 c675 -215 902 -284 1117 -335 323 -78 305 -73 305 -85 0 -6 -136
-8 -372 -6 -306 4 -403 8 -543 26 -146 19 -217 22 -510 21 -263 -1 -344 2
-357 12 -17 14 -498 624 -498 633 0 3 3 5 6 5 3 0 386 -122 852 -271z m-2818
-674 l0 -265 -22 -5 c-98 -22 -364 -75 -379 -75 -18 0 -19 11 -19 280 0 154 1
280 3 281 3 0 389 46 405 48 9 1 12 -58 12 -264z m910 0 l0 -265 -435 0 -435
0 0 265 0 265 435 0 435 0 0 -265z m1265 0 l0 -260 -612 -3 -613 -2 0 265 0
265 613 -2 612 -3 0 -260z m915 5 l0 -260 -435 0 -435 0 0 260 0 260 435 0
435 0 0 -260z m250 235 c85 -9 165 -18 178 -21 l22 -4 0 -280 c0 -241 -2 -280
-15 -280 -12 0 -295 57 -372 75 l-23 5 0 266 0 266 28 -6 c15 -3 97 -12 182
-21z m-4250 -815 l0 -790 -195 0 -195 0 0 790 0 790 195 0 195 0 0 -790z m450
505 l0 -285 -210 0 -210 0 0 278 c0 153 3 282 7 285 3 4 98 7 210 7 l203 0 0
-285z m4460 0 l0 -285 -210 0 -210 0 0 285 0 285 210 0 210 0 0 -285z m430
-510 l0 -795 -195 0 -195 0 0 795 0 795 195 0 195 0 0 -795z m-3520 -248 l0
-534 -172 -6 c-95 -4 -291 -7 -435 -7 l-263 0 0 540 0 540 435 0 435 0 0 -533z
m1265 -7 l0 -535 -210 0 -210 0 -5 258 c-6 321 9 297 -186 297 -126 0 -134 -1
-161 -24 l-28 -24 -3 -256 -3 -256 -210 0 -209 0 0 540 0 540 613 -2 612 -3 0
-535z m910 0 l0 -535 -195 -3 c-107 -2 -304 0 -437 3 l-243 7 0 527 c0 290 3
531 7 534 3 4 200 6 437 5 l431 -3 0 -535z m-3085 -5 l0 -535 -207 2 -208 3 0
489 0 490 200 42 c110 23 203 43 208 43 4 1 7 -240 7 -534z m3360 487 l175
-37 3 -493 2 -492 -205 0 -205 0 0 535 0 535 28 -6 c15 -3 106 -22 202 -42z
m-3820 -532 l0 -490 -207 2 -208 3 -3 488 -2 487 210 0 210 0 0 -490z m4460 0
l0 -490 -207 2 -208 3 -3 488 -2 487 210 0 210 0 0 -490z m-2294 16 c11 -16
14 -68 14 -258 l0 -238 -155 0 -155 0 0 244 c0 300 -13 279 163 274 104 -3
120 -5 133 -22z m-1040 -563 c-3 -16 -8 -58 -12 -95 l-6 -68 -974 0 -974 0 0
95 0 95 986 0 986 0 -6 -27z m244 -178 l0 -205 -119 0 c-67 0 -122 4 -126 10
-5 9 31 360 40 388 3 8 33 12 105 12 l100 0 0 -205z m1270 110 l0 -95 -615 0
-615 0 0 95 0 95 615 0 615 0 0 -95z m241 93 c9 -31 45 -395 40 -401 -4 -4
-61 -6 -127 -5 l-119 3 -3 203 -2 202 105 0 c58 0 105 -1 106 -2z m2009 -93
l0 -95 -974 0 -974 0 -6 38 c-3 20 -8 63 -12 95 l-6 57 986 0 986 0 0 -95z
m-3795 -202 c-4 -38 -9 -76 -11 -86 -5 -16 -65 -17 -1070 -17 l-1064 0 0 85 0
85 1076 0 1076 0 -7 -67z m1545 -18 l0 -85 -615 0 -615 0 0 85 0 85 615 0 615
0 0 -85z m2450 0 l0 -85 -1064 0 -1063 0 -7 61 c-3 34 -6 73 -6 85 l0 24 1070
0 1070 0 0 -85z m-4012 -317 l2 -188 -1230 0 -1230 0 0 183 c0 101 3 187 7
190 3 4 556 6 1227 5 l1221 -3 3 -187z m300 0 l2 -188 -135 0 -135 0 0 183 c0
101 3 187 7 191 4 3 63 5 132 4 l126 -3 3 -187z m1262 107 l0 -85 -615 0 -615
0 0 85 0 85 615 0 615 0 0 -85z m2780 -105 l0 -190 -1230 0 -1230 0 0 183 c0
101 3 187 7 190 3 4 557 7 1230 7 l1223 0 0 -190z m-2490 -5 l0 -185 -130 0
-130 0 0 185 0 185 130 0 130 0 0 -185z m-290 -100 l0 -85 -615 0 -615 0 0 85
0 85 615 0 615 0 0 -85z"/>
<path d="M3800 2949 c-81 -98 -130 -166 -126 -175 4 -12 48 -14 269 -14 145 0
267 3 270 6 3 4 1 16 -5 27 -16 31 -259 317 -269 317 -4 0 -67 -72 -139 -161z
m253 -20 l108 -129 -216 0 c-207 0 -216 1 -203 18 33 46 194 242 198 241 3 0
54 -59 113 -130z"/>
<path d="M2160 2215 c0 -69 3 -85 15 -85 12 0 15 16 15 85 0 69 -3 85 -15 85
-12 0 -15 -16 -15 -85z"/>
<path d="M2670 2265 c0 -78 2 -85 20 -85 18 0 20 7 20 85 0 78 -2 85 -20 85
-18 0 -20 -7 -20 -85z"/>
<path d="M3000 2265 c0 -69 3 -85 15 -85 12 0 15 16 15 85 0 69 -3 85 -15 85
-12 0 -15 -16 -15 -85z"/>
<path d="M3600 2265 c0 -69 3 -85 15 -85 12 0 15 16 15 85 0 69 -3 85 -15 85
-12 0 -15 -16 -15 -85z"/>
<path d="M3930 2265 c0 -69 3 -85 15 -85 12 0 15 16 15 85 0 69 -3 85 -15 85
-12 0 -15 -16 -15 -85z"/>
<path d="M4250 2265 c0 -78 2 -85 20 -85 18 0 20 7 20 85 0 78 -2 85 -20 85
-18 0 -20 -7 -20 -85z"/>
<path d="M4850 2265 c0 -78 2 -85 20 -85 18 0 20 7 20 85 0 78 -2 85 -20 85
-18 0 -20 -7 -20 -85z"/>
<path d="M5180 2265 c0 -69 3 -85 15 -85 12 0 15 16 15 85 0 69 -3 85 -15 85
-12 0 -15 -16 -15 -85z"/>
<path d="M5700 2215 c0 -69 3 -85 15 -85 12 0 15 16 15 85 0 69 -3 85 -15 85
-12 0 -15 -16 -15 -85z"/>
<path d="M1700 2195 c0 -69 3 -85 15 -85 12 0 15 16 15 85 0 69 -3 85 -15 85
-12 0 -15 -16 -15 -85z"/>
<path d="M6150 2195 c0 -78 2 -85 20 -85 18 0 20 7 20 85 0 78 -2 85 -20 85
-18 0 -20 -7 -20 -85z"/>
<path d="M2670 1565 c0 -78 2 -85 20 -85 18 0 20 7 20 85 0 78 -2 85 -20 85
-18 0 -20 -7 -20 -85z"/>
<path d="M3000 1565 c0 -69 3 -85 15 -85 12 0 15 16 15 85 0 69 -3 85 -15 85
-12 0 -15 -16 -15 -85z"/>
<path d="M2670 1295 c0 -78 2 -85 20 -85 18 0 20 7 20 85 0 78 -2 85 -20 85
-18 0 -20 -7 -20 -85z"/>
<path d="M3000 1295 c0 -69 3 -85 15 -85 12 0 15 16 15 85 0 69 -3 85 -15 85
-12 0 -15 -16 -15 -85z"/>
<path d="M3520 1295 c0 -78 2 -85 20 -85 18 0 20 7 20 85 0 78 -2 85 -20 85
-18 0 -20 -7 -20 -85z"/>
<path d="M4330 1295 c0 -69 3 -85 15 -85 12 0 15 16 15 85 0 69 -3 85 -15 85
-12 0 -15 -16 -15 -85z"/>
<path d="M4850 1565 c0 -69 3 -85 15 -85 12 0 15 16 15 85 0 69 -3 85 -15 85
-12 0 -15 -16 -15 -85z"/>
<path d="M5180 1565 c0 -69 3 -85 15 -85 12 0 15 16 15 85 0 69 -3 85 -15 85
-12 0 -15 -16 -15 -85z"/>
<path d="M4850 1295 c0 -69 3 -85 15 -85 12 0 15 16 15 85 0 69 -3 85 -15 85
-12 0 -15 -16 -15 -85z"/>
<path d="M5180 1295 c0 -69 3 -85 15 -85 12 0 15 16 15 85 0 69 -3 85 -15 85
-12 0 -15 -16 -15 -85z"/>
<path d="M2160 1565 c0 -69 3 -85 15 -85 12 0 15 16 15 85 0 69 -3 85 -15 85
-12 0 -15 -16 -15 -85z"/>
<path d="M2160 1295 c0 -69 3 -85 15 -85 12 0 15 16 15 85 0 69 -3 85 -15 85
-12 0 -15 -16 -15 -85z"/>
<path d="M5700 1565 c0 -69 3 -85 15 -85 12 0 15 16 15 85 0 69 -3 85 -15 85
-12 0 -15 -16 -15 -85z"/>
<path d="M5700 1295 c0 -69 3 -85 15 -85 12 0 15 16 15 85 0 69 -3 85 -15 85
-12 0 -15 -16 -15 -85z"/>
<path d="M1700 1525 c0 -69 3 -85 15 -85 12 0 15 16 15 85 0 69 -3 85 -15 85
-12 0 -15 -16 -15 -85z"/>
<path d="M1700 1245 c0 -69 3 -85 15 -85 12 0 15 16 15 85 0 69 -3 85 -15 85
-12 0 -15 -16 -15 -85z"/>
<path d="M6150 1525 c0 -78 2 -85 20 -85 18 0 20 7 20 85 0 78 -2 85 -20 85
-18 0 -20 -7 -20 -85z"/>
<path d="M6150 1245 c0 -78 2 -85 20 -85 18 0 20 7 20 85 0 78 -2 85 -20 85
-18 0 -20 -7 -20 -85z"/>
</g>
</svg>
